<svg xmlns="http://www.w3.org/2000/svg" width="133" height="133" viewBox="0 0 133 133" fill="none">
<path d="M0 12.2891C0 5.66165 5.37258 0.289062 12 0.289062H120.609C127.237 0.289062 132.609 5.66165 132.609 12.2891V108.315C132.609 121.57 121.864 132.315 108.609 132.315H12C5.37259 132.315 0 126.942 0 120.315V12.2891Z" fill="white"/>
<path d="M120.608 0C127.236 0.000171648 132.608 5.37269 132.608 12V78.4414L113.243 51.6025C96.4338 28.3051 63.9245 23.0455 40.627 39.8545C17.3298 56.6639 12.0709 89.1733 28.8799 112.471L43.4092 132.608H12C5.37269 132.608 0.000165245 127.236 0 120.608V12C6.72183e-06 5.37259 5.37259 3.14097e-07 12 0H120.608ZM48.9141 51.3398C65.8681 39.1077 89.5252 42.935 101.758 59.8887L128.049 96.3271C135.441 106.573 133.126 120.883 122.881 128.275C112.635 135.668 98.3249 133.352 90.9326 123.106L64.6426 86.668C62.0908 83.1311 62.8861 78.2101 66.4229 75.6582C69.9596 73.1064 74.8806 73.9029 77.4326 77.4395L103.724 113.878C106.012 117.049 110.438 117.766 113.609 115.478C116.781 113.189 117.497 108.763 115.209 105.592L88.918 69.1533C81.7892 59.273 68.0161 57.0441 58.1357 64.1729C48.2556 71.3017 46.0276 85.0758 53.1562 94.9561L79.4463 131.395C79.7444 131.808 80.0516 132.211 80.3633 132.608H60.873L40.3652 104.185C28.1327 87.2305 31.9601 63.5725 48.9141 51.3398Z" fill="#5539D9"/>
</svg>
